<?xml version="1.0" standalone="no"?>
<!DOCTYPE svg PUBLIC "-//W3C//DTD SVG 20010904//EN"
 "http://www.w3.org/TR/2001/REC-SVG-20010904/DTD/svg10.dtd">
<svg version="1.0" xmlns="http://www.w3.org/2000/svg"
 width="867.000000pt" height="867.000000pt" viewBox="0 0 867.000000 867.000000"
 preserveAspectRatio="xMidYMid meet">
<metadata>
Created by potrace 1.14, written by Peter Selinger 2001-2017
</metadata>
<g transform="translate(0.000000,867.000000) scale(0.100000,-0.100000)"
fill="#000000" stroke="none">
<path d="M5038 6835 c-3 -14 -2 -25 2 -25 3 0 4 -22 0 -48 -3 -27 -3 -61 1
-75 4 -15 4 -27 1 -27 -8 0 -6 -125 2 -146 3 -8 2 -14 -2 -14 -8 0 -6 -124 2
-146 3 -8 2 -14 -2 -14 -4 0 -6 -45 -5 -100 l2 -100 -180 0 -179 0 -1 -27 c-1
-16 0 -32 1 -38 1 -5 1 -17 1 -25 -3 -121 -2 -160 2 -167 3 -4 2 -27 -3 -51
-4 -23 -4 -45 1 -48 4 -2 5 -15 1 -27 -4 -12 -7 -33 -5 -47 1 -14 2 -41 2 -60
1 -19 1 -44 1 -55 1 -11 1 -26 1 -32 -3 -72 -3 -110 0 -123 3 -13 -22 -15
-177 -18 l-182 -2 -4 -25 c-3 -14 -1 -25 4 -25 5 0 7 -4 4 -9 -8 -13 -11 -139
-4 -147 4 -3 2 -18 -3 -33 -11 -28 -11 -28 2 -53 6 -10 5 -19 -1 -23 -5 -3 -6
-15 -1 -28 5 -12 5 -32 0 -44 -5 -13 -4 -25 1 -28 6 -3 6 -15 0 -30 -6 -15 -6
-27 0 -30 6 -3 6 -15 0 -30 -6 -15 -6 -27 1 -30 5 -4 7 -11 4 -16 -4 -5 -7
-45 -7 -89 l0 -81 -177 1 -176 2 -2 -59 c-5 -113 -5 -194 0 -199 3 -3 2 -18
-3 -33 -4 -15 -4 -35 1 -44 6 -10 5 -18 -1 -22 -6 -4 -8 -11 -4 -16 3 -5 5
-35 4 -67 -1 -31 0 -73 0 -92 1 -19 2 -42 1 -50 0 -8 -1 -43 0 -77 l0 -63
-175 0 c-154 0 -176 -2 -185 -17 -5 -10 -5 -26 0 -40 5 -13 5 -23 1 -23 -5 0
-7 -17 -5 -37 4 -42 6 -92 3 -108 -4 -28 -1 -265 4 -274 4 -5 2 -12 -3 -16 -6
-3 -7 -15 -2 -28 5 -12 5 -31 1 -42 -4 -11 -4 -32 1 -47 4 -16 4 -28 0 -28 -4
0 -6 -13 -3 -30 l4 -30 -181 0 -181 0 0 -22 c0 -13 0 -30 -1 -38 0 -8 0 -31 0
-50 1 -19 0 -51 0 -70 0 -19 0 -46 0 -60 1 -26 2 -103 1 -130 0 -8 0 -37 0
-65 1 -27 0 -57 0 -65 0 -8 0 -33 0 -55 0 -22 0 -47 0 -55 0 -8 0 -36 -1 -62
l0 -48 -184 0 -184 0 9 -30 c5 -16 5 -30 0 -30 -4 0 -4 -15 0 -34 4 -19 4 -40
-1 -47 -4 -7 -3 -21 2 -30 6 -11 5 -20 -1 -24 -5 -3 -6 -15 -1 -27 4 -11 4
-40 1 -65 -4 -24 -3 -46 1 -49 5 -2 4 -16 -1 -29 -6 -15 -6 -27 0 -30 6 -3 6
-15 0 -30 -6 -15 -6 -27 0 -30 6 -3 6 -15 0 -30 -6 -15 -6 -27 0 -30 6 -4 7
-13 1 -24 -6 -10 -6 -23 -1 -31 5 -8 5 -21 0 -30 -5 -9 -5 -22 0 -30 5 -8 5
-21 0 -30 -5 -9 -5 -22 0 -30 5 -8 6 -18 4 -22 -3 -5 158 -7 358 -6 l362 3 -2
45 c-2 25 -3 52 -3 60 2 236 2 579 -1 590 -4 18 -11 17 193 19 l167 1 4 29 c2
16 1 37 -2 47 -4 11 -4 31 1 47 5 16 4 25 -2 22 -5 -4 -6 3 0 17 4 13 5 32 1
43 -4 11 -4 29 -1 40 4 11 6 31 5 45 -1 14 -2 39 -3 55 0 17 -1 41 -1 55 -1
14 -1 31 -1 38 0 15 0 145 0 170 -1 9 0 38 1 65 l3 47 177 0 c166 0 178 1 183
19 2 10 1 25 -3 32 -5 7 -4 23 0 35 6 14 5 26 0 29 -6 3 -6 15 0 30 6 15 6 27
0 30 -6 3 -6 15 0 30 5 13 6 26 2 29 -5 3 -5 30 -2 61 3 31 3 58 -2 61 -4 3
-3 15 2 28 5 13 6 27 3 30 -8 7 -10 76 -3 76 3 0 4 19 2 43 -1 23 -4 57 -5 75
-1 17 0 32 3 32 3 0 5 17 5 37 0 44 -17 41 212 42 l141 1 4 51 c1 28 0 56 -3
61 -4 6 -3 23 1 38 4 15 4 33 0 40 -4 7 -4 25 0 40 4 15 4 33 0 40 -4 7 -4 25
0 40 4 15 4 34 -1 43 -6 10 -5 18 1 22 6 4 8 11 4 16 -3 5 -5 35 -4 67 1 31 0
73 0 92 -1 19 -2 42 -1 50 0 8 1 39 0 67 l0 53 183 2 182 3 -2 40 c-4 64 -2
118 3 123 2 3 0 13 -5 23 -7 11 -7 20 0 24 5 3 6 15 1 27 -4 12 -5 38 -1 59 4
20 3 44 -2 52 -5 9 -4 18 1 22 6 3 7 15 2 27 -4 12 -5 38 -1 59 4 20 3 44 -2
52 -5 9 -4 18 1 22 6 3 7 15 1 29 -4 12 -5 29 0 36 5 7 4 24 0 36 -5 13 -6 26
-1 28 5 3 6 17 3 31 l-4 25 180 0 180 0 4 51 c1 28 0 56 -4 62 -3 7 -3 31 2
55 4 23 4 45 -1 48 -4 2 -5 15 -1 27 8 22 7 96 -2 104 -2 3 0 18 5 35 5 17 5
38 0 47 -5 9 -6 35 -1 59 4 23 4 45 -1 48 -4 2 -5 15 -1 27 7 21 8 47 2 92 -1
11 -2 30 -1 43 1 22 1 22 181 22 113 0 180 4 181 10 3 39 1 81 -4 86 -3 3 -2
17 3 30 6 14 6 26 0 29 -6 3 -6 15 0 30 6 15 6 27 0 30 -6 3 -6 15 0 30 6 15
6 27 0 30 -6 3 -6 15 0 30 6 15 6 27 0 30 -6 3 -6 15 0 30 6 15 6 27 0 30 -6
3 -6 15 0 30 6 15 6 27 0 30 -6 3 -6 15 0 30 6 15 6 27 0 30 -6 3 -6 15 0 30
6 15 6 27 0 30 -6 3 -6 15 0 30 6 15 6 27 -1 30 -5 4 -6 13 -1 22 5 8 7 26 4
39 l-4 24 -358 0 -358 0 -4 -25z"/>
<path d="M1439 6108 c0 -18 -1 -48 -2 -66 -1 -17 0 -32 3 -32 3 0 5 -20 5 -45
0 -25 -2 -45 -5 -45 -5 0 -4 -58 0 -70 1 -3 2 -9 0 -15 -5 -28 -4 -105 2 -105
4 0 3 -13 -2 -30 -5 -16 -6 -30 -2 -30 4 0 7 -18 7 -40 0 -22 -2 -40 -5 -40
-3 0 -4 -17 -2 -37 3 -49 4 -82 3 -110 l-1 -23 -357 1 c-284 0 -358 -3 -358
-13 0 -7 -3 -18 -7 -23 -4 -6 -3 -17 1 -23 4 -7 5 -33 1 -58 -4 -24 -3 -47 2
-50 4 -3 4 -13 -1 -23 -5 -9 -6 -23 -2 -29 4 -7 5 -33 1 -58 -4 -24 -3 -47 2
-50 4 -3 4 -13 -1 -23 -5 -9 -6 -23 -2 -29 4 -7 5 -33 1 -58 -4 -24 -3 -47 2
-50 4 -3 4 -13 -1 -23 -5 -9 -6 -23 -2 -30 5 -7 5 -29 1 -49 -3 -20 -3 -48 0
-62 3 -14 4 -35 2 -48 -4 -20 -10 -23 -41 -22 -20 1 -181 2 -358 1 l-323 -1 0
-360 0 -360 354 0 c195 0 357 4 360 8 5 8 6 49 6 150 0 9 0 33 1 52 1 19 1 41
0 48 -1 12 -1 28 -1 55 0 6 0 28 -1 47 0 19 0 40 1 45 5 25 4 52 -2 73 -4 12
-4 22 0 22 5 0 7 17 5 38 -5 42 -6 92 -3 107 1 6 1 25 0 42 l-2 33 363 2 363
3 -2 40 c-3 67 -4 110 -2 115 5 17 4 280 -2 280 -4 0 -3 14 2 30 5 18 5 30 0
30 -6 0 -6 10 0 25 6 15 6 27 0 30 -5 3 -7 12 -4 19 3 7 6 42 7 77 l2 64 350
3 c193 1 354 7 359 12 5 5 8 29 7 54 -1 25 -1 53 -1 61 0 8 0 23 0 33 0 9 0
33 1 52 1 19 1 41 0 48 -1 6 -1 19 -1 27 0 8 0 22 0 30 0 8 0 23 0 33 0 9 0
56 0 105 1 48 -2 91 -5 96 -3 5 -2 12 3 15 9 5 7 70 -3 86 -3 6 -2 10 3 10 5
0 7 14 4 30 l-4 30 -359 0 -359 0 -1 -32z"/>
<path d="M6498 6065 c-2 -41 -1 -75 2 -75 3 0 3 -29 0 -66 -3 -36 -2 -70 2
-77 3 -6 4 -15 2 -19 -7 -11 -10 -318 -4 -318 3 0 4 -20 2 -45 l-4 -45 361 0
361 0 0 -360 0 -360 361 0 360 0 -2 -75 c-1 -41 0 -77 2 -79 2 -2 3 -131 1
-285 l-3 -281 -359 0 -360 0 0 -360 0 -360 -359 0 -359 0 -4 -75 c-2 -41 -1
-75 2 -75 3 0 3 -29 0 -66 -3 -36 -2 -70 2 -77 3 -6 4 -15 2 -19 -7 -11 -10
-318 -4 -318 3 0 4 -20 2 -45 l-4 -45 362 0 361 0 -1 68 c0 37 -1 199 0 360
l0 292 360 0 360 0 1 163 c1 89 0 167 -1 172 -1 6 -2 15 -2 20 1 10 2 118 2
160 -1 11 -1 62 -1 113 l0 92 360 0 c387 0 375 -2 360 52 -4 16 -3 30 2 33 5
4 5 13 -1 24 -5 10 -7 21 -3 24 3 4 5 44 4 89 -1 46 -2 89 -2 96 0 6 0 50 0
97 0 47 0 93 0 103 0 9 0 37 0 62 -1 67 -1 74 1 85 1 6 2 20 1 33 l-1 22 -359
0 c-333 0 -359 1 -363 18 -2 9 -2 27 1 40 3 13 5 167 3 342 l-3 320 -359 0
-359 0 -1 138 c-1 75 -1 142 -1 147 2 44 2 147 1 235 -1 58 -1 110 0 115 1 6
2 27 1 48 l-1 37 -359 0 -359 0 -4 -75z"/>
<path d="M728 3975 c-7 -5 -12 -25 -10 -42 2 -31 2 -44 2 -75 0 -7 0 -31 1
-53 0 -22 0 -44 -1 -50 -4 -26 -1 -115 5 -125 3 -5 3 -10 -2 -10 -9 0 -8 -118
1 -127 3 -3 1 -13 -4 -22 -5 -10 -5 -23 -1 -29 4 -7 5 -33 1 -58 -4 -24 -3
-47 2 -50 4 -3 4 -13 -1 -22 -6 -11 -6 -24 0 -35 9 -16 39 -17 363 -17 l354 0
4 -30 c3 -17 3 -32 0 -35 -8 -7 -7 -265 0 -265 4 0 5 -6 3 -12 -7 -19 -12
-108 -5 -108 3 0 5 -20 5 -45 0 -25 -2 -45 -5 -45 -7 0 -5 -54 2 -66 3 -5 3
-17 -1 -27 -4 -10 -5 -34 -3 -53 l4 -34 362 0 361 0 -3 47 c-4 60 -4 107 -2
113 5 15 4 110 -2 110 -4 0 -3 12 1 28 5 15 5 36 1 47 -4 11 -5 24 -2 29 7 12
4 164 -3 176 -3 5 -2 11 3 14 9 5 7 70 -3 86 -3 6 -2 10 3 10 5 0 7 13 4 30
l-4 30 -357 2 -356 3 0 28 c1 15 -3 27 -7 27 -4 0 -3 11 2 25 6 15 6 27 0 30
-6 3 -6 15 0 30 6 15 6 27 0 30 -6 3 -6 15 0 30 5 13 6 26 2 29 -5 3 -5 30 -2
61 3 31 3 58 -2 61 -4 3 -3 15 2 28 5 13 6 27 3 30 -7 7 -10 76 -3 76 6 0 4
80 -3 86 -3 3 -2 18 3 32 4 15 3 37 -1 50 -5 12 -4 22 0 22 5 0 7 9 4 20 -5
19 -14 20 -297 21 -160 0 -317 1 -348 2 -32 1 -63 -2 -70 -8z"/>
</g>
</svg>
